<svg width="44" height="44" viewBox="0 0 44 44" fill="none" xmlns="http://www.w3.org/2000/svg">
<rect width="44" height="44" rx="22" fill="white"/>
<path d="M18.6667 12V14.2222M25.3333 12V14.2222M18.6667 29.7778V32M25.3333 29.7778V32M14.2222 18.6667H12M14.2222 25.3333H12M32 18.6667H29.7778M32 25.3333H29.7778M16.4444 29.7778H27.5556C28.1449 29.7778 28.7102 29.5437 29.1269 29.1269C29.5437 28.7102 29.7778 28.1449 29.7778 27.5556V16.4444C29.7778 15.8551 29.5437 15.2898 29.1269 14.8731C28.7102 14.4563 28.1449 14.2222 27.5556 14.2222H16.4444C15.8551 14.2222 15.2898 14.4563 14.8731 14.8731C14.4563 15.2898 14.2222 15.8551 14.2222 16.4444V27.5556C14.2222 28.1449 14.4563 28.7102 14.8731 29.1269C15.2898 29.5437 15.8551 29.7778 16.4444 29.7778ZM18.6667 18.6667H25.3333V25.3333H18.6667V18.6667Z" stroke="#212121" stroke-width="2" stroke-linecap="round" stroke-linejoin="round"/>
</svg>
