<svg width="44" height="44" viewBox="0 0 44 44" fill="none" xmlns="http://www.w3.org/2000/svg">
<rect width="44" height="44" rx="22" fill="white"/>
<path d="M12 23.1111H32M19.5 27.5556L18.6667 30.8889L17.5556 32H26.4444L25.3333 30.8889L24.5 27.5556H19.5ZM14.2222 27.5556H29.7778C30.3671 27.5556 30.9324 27.3214 31.3491 26.9047C31.7659 26.4879 32 25.9227 32 25.3333V14.2222C32 13.6329 31.7659 13.0676 31.3491 12.6509C30.9324 12.2341 30.3671 12 29.7778 12H14.2222C13.6329 12 13.0676 12.2341 12.6509 12.6509C12.2341 13.0676 12 13.6329 12 14.2222V25.3333C12 25.9227 12.2341 26.4879 12.6509 26.9047C13.0676 27.3214 13.6329 27.5556 14.2222 27.5556Z" stroke="#212121" stroke-width="2" stroke-linecap="round" stroke-linejoin="round"/>
</svg>
