<svg width="3040" height="4621" viewBox="0 0 3040 4621" fill="none" xmlns="http://www.w3.org/2000/svg">
<path d="M1650.73 743.044C1739.98 742.14 1919.22 754.356 1809.82 848.219C1673.06 965.549 2157.56 1057.28 2079.42 965.549C2001.27 873.819 1407.37 978.348 1887.96 1134.08C2272.44 1258.66 1516.77 1291.23 1090.88 1291.94C941.826 1296.56 713.049 1342.93 990.403 1491.44C1337.1 1677.07 1964.37 1756.02 1926.17 1869.1C1887.96 1982.19 516.927 2474.04 990.403 2474.04C2032.12 2474.04 1083.01 2758.45 1492.23 2854.95C1617.03 2884.38 2144.84 2834.56 2117.36 3021.3C2066.16 3369.23 806.011 3204.04 945.245 3394.98C1119.29 3633.66 2117.36 3722.86 2144 3804.83" stroke="#D52020" stroke-width="1.5" stroke-linecap="square"/>
<g filter="url(#filter0_f_1_9)">
<ellipse cx="1643.04" cy="939.133" rx="218.532" ry="139.062" fill="#D52020"/>
</g>
<g filter="url(#filter1_f_1_9)">
<ellipse cx="2021.47" cy="2016.58" rx="218.532" ry="139.062" fill="#D52020"/>
</g>
<g filter="url(#filter2_f_1_9)">
<ellipse cx="1018.53" cy="3118.34" rx="218.532" ry="139.062" fill="#D52020"/>
</g>
<g filter="url(#filter3_f_1_9)">
<ellipse cx="1061.17" cy="3138.12" rx="218.532" ry="139.062" fill="#D52020"/>
</g>
<g filter="url(#filter4_f_1_9)">
<ellipse cx="2033.02" cy="3711.9" rx="171.45" ry="109.102" fill="#D52020"/>
</g>
<path d="M1316.56 1120.69C1316.93 1119.94 1317.99 1119.94 1318.35 1120.69L1322.41 1128.89C1322.55 1129.16 1322.8 1129.35 1323.09 1129.42L1333.86 1131.77C1334.91 1132 1334.91 1133.5 1333.86 1133.73L1323.09 1136.08C1322.8 1136.15 1322.55 1136.34 1322.41 1136.62L1318.35 1144.82C1317.99 1145.56 1316.93 1145.56 1316.56 1144.82L1312.5 1136.62C1312.37 1136.34 1312.12 1136.15 1311.82 1136.08L1301.05 1133.73C1300 1133.5 1300 1132 1301.05 1131.77L1311.82 1129.42C1312.12 1129.35 1312.37 1129.16 1312.5 1128.89L1316.56 1120.69Z" fill="#D52020"/>
<path d="M1800.13 899.591C1800.29 898.819 1801.36 898.69 1801.92 899.375L1808.1 906.937C1808.31 907.186 1808.61 907.349 1808.92 907.378L1820.24 908.419C1821.34 908.52 1821.73 909.95 1820.76 910.301L1810.72 913.93C1810.44 914.031 1810.24 914.253 1810.18 914.535L1808.41 923.061C1808.25 923.833 1807.18 923.963 1806.62 923.277L1800.44 915.716C1800.23 915.466 1799.93 915.303 1799.62 915.274L1788.29 914.233C1787.2 914.132 1786.81 912.702 1787.78 912.351L1797.82 908.722C1798.1 908.622 1798.29 908.399 1798.35 908.117L1800.13 899.591Z" fill="#D52020"/>
<path d="M1887.05 1285.98C1887.98 1285.54 1889.09 1286.07 1888.74 1286.8L1885.66 1293.2C1885.54 1293.45 1885.59 1293.71 1885.8 1293.9L1891.45 1299.1C1892.1 1299.71 1891.1 1300.62 1890.03 1300.4L1880.84 1298.44C1880.5 1298.37 1880.11 1298.42 1879.8 1298.57L1871.6 1302.5C1870.67 1302.95 1869.56 1302.42 1869.91 1301.69L1872.99 1295.29C1873.11 1295.04 1873.06 1294.78 1872.85 1294.59L1867.2 1289.39C1866.54 1288.78 1867.55 1287.86 1868.62 1288.09L1877.81 1290.05C1878.15 1290.12 1878.53 1290.07 1878.85 1289.92L1887.05 1285.98Z" fill="#D52020"/>
<path d="M1610.45 1647.42C1610.05 1646.71 1611.15 1646.12 1612.12 1646.53L1618.18 1649.15C1618.51 1649.29 1618.9 1649.32 1619.24 1649.24L1625.71 1647.62C1626.77 1647.35 1627.8 1648.21 1627.19 1648.84L1623.42 1652.69C1623.22 1652.9 1623.19 1653.16 1623.32 1653.4L1625.87 1657.9C1626.27 1658.61 1625.17 1659.2 1624.21 1658.79L1618.14 1656.17C1617.82 1656.03 1617.43 1655.99 1617.09 1656.08L1610.61 1657.7C1609.56 1657.96 1608.52 1657.11 1609.14 1656.48L1612.9 1652.62C1613.1 1652.42 1613.14 1652.16 1613 1651.92L1610.45 1647.42Z" fill="#D52020"/>
<path d="M1122.36 2584.65C1123.28 2584.19 1124.39 2584.7 1124.06 2585.44L1122.77 2588.31C1122.65 2588.56 1122.71 2588.81 1122.92 2589L1125.32 2591.12C1125.99 2591.72 1125 2592.66 1123.93 2592.45L1120.11 2591.69C1119.77 2591.62 1119.38 2591.67 1119.07 2591.83L1115.46 2593.63C1114.54 2594.09 1113.44 2593.57 1113.77 2592.84L1115.06 2589.97C1115.17 2589.72 1115.12 2589.46 1114.9 2589.27L1112.51 2587.15C1111.83 2586.56 1112.82 2585.61 1113.9 2585.83L1117.72 2586.59C1118.06 2586.66 1118.44 2586.6 1118.76 2586.45L1122.36 2584.65Z" fill="#D52020"/>
<path d="M1243.44 1517.71C1244.18 1517.12 1245.27 1517.4 1245.21 1518.17L1244.96 1521.32C1244.93 1521.6 1245.07 1521.84 1245.32 1521.98L1248.1 1523.5C1248.95 1523.97 1248.22 1525.21 1247.11 1525.17L1243.53 1525.04C1243.2 1525.03 1242.85 1525.15 1242.58 1525.36L1239.57 1527.8C1238.83 1528.39 1237.74 1528.11 1237.8 1527.34L1238.05 1524.19C1238.08 1523.91 1237.94 1523.67 1237.68 1523.53L1234.91 1522.01C1234.06 1521.54 1234.79 1520.3 1235.9 1520.34L1239.48 1520.47C1239.81 1520.48 1240.16 1520.36 1240.42 1520.15L1243.44 1517.71Z" fill="#D52020"/>
<path d="M1331.81 1930.67C1331.72 1929.9 1332.82 1929.59 1333.58 1930.18L1336.66 1932.56C1336.93 1932.76 1337.29 1932.88 1337.62 1932.86L1341.23 1932.68C1342.34 1932.62 1343.1 1933.84 1342.26 1934.32L1339.52 1935.9C1339.26 1936.04 1339.14 1936.29 1339.17 1936.56L1339.53 1939.69C1339.62 1940.46 1338.52 1940.77 1337.76 1940.18L1334.68 1937.8C1334.4 1937.59 1334.05 1937.48 1333.72 1937.5L1330.1 1937.68C1329 1937.74 1328.23 1936.52 1329.07 1936.04L1331.82 1934.46C1332.07 1934.32 1332.2 1934.07 1332.17 1933.8L1331.81 1930.67Z" fill="#D52020"/>
<path d="M988.61 2072.36C989.245 2071.65 990.398 2071.85 990.433 2072.67L990.807 2081.52C990.819 2081.81 990.985 2082.06 991.255 2082.18L1000.41 2086.45C1001.29 2086.86 1000.78 2088.18 999.705 2088.25L988.588 2089.02C988.261 2089.04 987.937 2089.2 987.714 2089.45L980.92 2097.07C980.285 2097.78 979.133 2097.58 979.098 2096.75L978.724 2087.9C978.711 2087.61 978.546 2087.37 978.276 2087.24L969.123 2082.98C968.238 2082.57 968.751 2081.25 969.826 2081.18L980.942 2080.41C981.27 2080.38 981.593 2080.22 981.816 2079.97L988.61 2072.36Z" fill="#D52020"/>
<path d="M1936.33 2166.76C1936.39 2165.98 1937.47 2165.78 1938.12 2166.43L1945.86 2174.15C1946.09 2174.39 1946.42 2174.53 1946.74 2174.54L1959.31 2174.94C1960.42 2174.97 1960.98 2176.33 1960.06 2176.74L1949.58 2181.38C1949.32 2181.49 1949.15 2181.73 1949.13 2182.01L1948.46 2191.28C1948.4 2192.06 1947.32 2192.25 1946.68 2191.61L1938.94 2183.88C1938.7 2183.65 1938.38 2183.51 1938.05 2183.5L1925.48 2183.1C1924.37 2183.06 1923.81 2181.71 1924.73 2181.3L1935.21 2176.66C1935.48 2176.54 1935.64 2176.31 1935.67 2176.02L1936.33 2166.76Z" fill="#D52020"/>
<path d="M1483.13 2731.48C1483.49 2730.74 1484.55 2730.74 1484.92 2731.48L1485.57 2732.79C1485.7 2733.07 1485.95 2733.26 1486.25 2733.33L1486.66 2733.42C1487.71 2733.65 1487.71 2735.14 1486.66 2735.37L1486.25 2735.46C1485.95 2735.53 1485.7 2735.72 1485.57 2735.99L1484.92 2737.31C1484.55 2738.05 1483.49 2738.05 1483.13 2737.31L1482.48 2735.99C1482.34 2735.72 1482.09 2735.53 1481.79 2735.46L1481.38 2735.37C1480.34 2735.14 1480.34 2733.65 1481.38 2733.42L1481.79 2733.33C1482.09 2733.26 1482.34 2733.07 1482.48 2732.79L1483.13 2731.48Z" fill="#D52020"/>
<path d="M1578.84 2367.75C1579.51 2367.11 1580.59 2367.33 1580.62 2368.11L1580.67 2369.42C1580.68 2369.7 1580.84 2369.94 1581.1 2370.06L1581.64 2370.32C1582.55 2370.74 1581.95 2372.07 1580.84 2372.09L1580.18 2372.1C1579.86 2372.1 1579.53 2372.24 1579.28 2372.47L1578.15 2373.55C1577.48 2374.19 1576.39 2373.97 1576.36 2373.19L1576.32 2371.87C1576.31 2371.59 1576.15 2371.36 1575.88 2371.23L1575.34 2370.98C1574.43 2370.56 1575.04 2369.23 1576.15 2369.21L1576.81 2369.2C1577.13 2369.2 1577.46 2369.06 1577.7 2368.83L1578.84 2367.75Z" fill="#D52020"/>
<path d="M1736.3 1990.44C1736.67 1989.7 1737.73 1989.7 1738.1 1990.44L1740.5 1995.31C1740.64 1995.58 1740.89 1995.78 1741.19 1995.85L1746.94 1997.1C1747.99 1997.33 1747.99 1998.83 1746.94 1999.06L1741.19 2000.32C1740.89 2000.38 1740.64 2000.58 1740.5 2000.85L1738.1 2005.72C1737.73 2006.46 1736.67 2006.46 1736.3 2005.72L1733.9 2000.85C1733.76 2000.58 1733.51 2000.38 1733.21 2000.32L1727.46 1999.06C1726.41 1998.83 1726.41 1997.33 1727.46 1997.1L1733.21 1995.85C1733.51 1995.78 1733.76 1995.58 1733.9 1995.31L1736.3 1990.44Z" fill="#D52020"/>
<path d="M2049.36 1888.15C2049.15 1887.39 2050.26 1887 2051.1 1887.53L2062.6 1894.82C2062.9 1895.01 2063.27 1895.09 2063.6 1895.05L2078.42 1893.32C2079.52 1893.2 2080.41 1894.29 2079.64 1894.83L2069.25 1902.07C2069.02 1902.23 2068.92 1902.49 2068.99 1902.75L2071.74 1913.16C2071.94 1913.92 2070.83 1914.31 2069.99 1913.78L2058.49 1906.49C2058.2 1906.3 2057.83 1906.22 2057.49 1906.25L2042.67 1907.98C2041.57 1908.11 2040.68 1907.01 2041.45 1906.48L2051.84 1899.24C2052.07 1899.07 2052.17 1898.82 2052.1 1898.56L2049.36 1888.15Z" fill="#D52020"/>
<path d="M1038.07 2902.72C1038.43 2901.97 1039.49 2901.97 1039.86 2902.72L1044.91 2912.92C1045.04 2913.19 1045.29 2913.38 1045.59 2913.45L1059.37 2916.46C1060.42 2916.69 1060.42 2918.19 1059.37 2918.42L1045.59 2921.43C1045.29 2921.49 1045.04 2921.69 1044.91 2921.96L1039.86 2932.16C1039.49 2932.9 1038.43 2932.9 1038.07 2932.16L1033.02 2921.96C1032.89 2921.69 1032.63 2921.49 1032.34 2921.43L1018.56 2918.42C1017.51 2918.19 1017.51 2916.69 1018.56 2916.46L1032.34 2913.45C1032.63 2913.38 1032.89 2913.19 1033.02 2912.92L1038.07 2902.72Z" fill="#D52020"/>
<path d="M1066.49 3109.38C1066.86 3108.64 1067.92 3108.64 1068.29 3109.38L1073.33 3119.58C1073.47 3119.85 1073.72 3120.05 1074.02 3120.11L1087.8 3123.13C1088.84 3123.35 1088.84 3124.85 1087.8 3125.08L1074.02 3128.09C1073.72 3128.16 1073.47 3128.35 1073.33 3128.62L1068.29 3138.82C1067.92 3139.57 1066.86 3139.57 1066.49 3138.82L1061.45 3128.62C1061.31 3128.35 1061.06 3128.16 1060.77 3128.09L1046.99 3125.08C1045.94 3124.85 1045.94 3123.35 1046.99 3123.13L1060.77 3120.11C1061.06 3120.05 1061.31 3119.85 1061.45 3119.58L1066.49 3109.38Z" fill="#D52020"/>
<path d="M1647.47 3213.3C1647.84 3212.56 1648.89 3212.56 1649.26 3213.3L1654.31 3223.5C1654.44 3223.77 1654.69 3223.97 1654.99 3224.04L1668.77 3227.05C1669.82 3227.28 1669.82 3228.77 1668.77 3229L1654.99 3232.01C1654.69 3232.08 1654.44 3232.27 1654.31 3232.55L1649.26 3242.75C1648.89 3243.49 1647.84 3243.49 1647.47 3242.75L1642.42 3232.55C1642.29 3232.27 1642.04 3232.08 1641.74 3232.01L1627.96 3229C1626.91 3228.77 1626.91 3227.28 1627.96 3227.05L1641.74 3224.04C1642.04 3223.97 1642.29 3223.77 1642.42 3223.5L1647.47 3213.3Z" fill="#D52020"/>
<path d="M2014.35 3130.64C2014.72 3129.9 2015.78 3129.9 2016.15 3130.64L2016.8 3131.95C2016.93 3132.22 2017.18 3132.42 2017.48 3132.48L2017.89 3132.57C2018.94 3132.8 2018.94 3134.3 2017.89 3134.53L2017.48 3134.62C2017.18 3134.68 2016.93 3134.88 2016.8 3135.15L2016.15 3136.46C2015.78 3137.2 2014.72 3137.2 2014.35 3136.46L2013.7 3135.15C2013.57 3134.88 2013.32 3134.68 2013.02 3134.62L2012.61 3134.53C2011.56 3134.3 2011.56 3132.8 2012.61 3132.57L2013.02 3132.48C2013.32 3132.42 2013.57 3132.22 2013.7 3131.95L2014.35 3130.64Z" fill="#D52020"/>
<path d="M1348.99 3610.1C1349.35 3609.35 1350.41 3609.35 1350.78 3610.1L1355.83 3620.3C1355.96 3620.57 1356.21 3620.76 1356.51 3620.83L1370.29 3623.84C1371.34 3624.07 1371.34 3625.57 1370.29 3625.8L1356.51 3628.81C1356.21 3628.87 1355.96 3629.07 1355.83 3629.34L1350.78 3639.54C1350.41 3640.28 1349.35 3640.28 1348.99 3639.54L1343.94 3629.34C1343.81 3629.07 1343.55 3628.87 1343.26 3628.81L1329.48 3625.8C1328.43 3625.57 1328.43 3624.07 1329.48 3623.84L1343.26 3620.83C1343.55 3620.76 1343.81 3620.57 1343.94 3620.3L1348.99 3610.1Z" fill="#D52020"/>
<path d="M1299.24 3631.35C1299.61 3630.61 1300.66 3630.61 1301.03 3631.35L1306.08 3641.55C1306.21 3641.82 1306.46 3642.02 1306.76 3642.09L1320.54 3645.1C1321.59 3645.33 1321.59 3646.82 1320.54 3647.05L1306.76 3650.06C1306.46 3650.13 1306.21 3650.33 1306.08 3650.6L1301.03 3660.8C1300.66 3661.54 1299.61 3661.54 1299.24 3660.8L1294.19 3650.6C1294.06 3650.33 1293.81 3650.13 1293.51 3650.06L1279.73 3647.05C1278.68 3646.82 1278.68 3645.33 1279.73 3645.1L1293.51 3642.09C1293.81 3642.02 1294.06 3641.82 1294.19 3641.55L1299.24 3631.35Z" fill="#D52020"/>
<path d="M958.117 3728.19C958.484 3727.45 959.542 3727.45 959.909 3728.19L961.438 3731.28C961.573 3731.55 961.824 3731.75 962.121 3731.81L965.204 3732.49C966.253 3732.72 966.253 3734.21 965.204 3734.44L962.121 3735.12C961.824 3735.18 961.573 3735.38 961.438 3735.65L959.909 3738.74C959.542 3739.48 958.484 3739.48 958.117 3738.74L956.588 3735.65C956.453 3735.38 956.202 3735.18 955.905 3735.12L952.822 3734.44C951.773 3734.21 951.773 3732.72 952.822 3732.49L955.905 3731.81C956.202 3731.75 956.453 3731.55 956.588 3731.28L958.117 3728.19Z" fill="#D52020"/>
<path d="M1928.18 3749.45C1928.55 3748.7 1929.61 3748.7 1929.98 3749.45L1933.26 3756.09C1933.4 3756.36 1933.65 3756.56 1933.95 3756.62L1942.38 3758.47C1943.43 3758.7 1943.43 3760.19 1942.38 3760.42L1933.95 3762.26C1933.65 3762.33 1933.4 3762.53 1933.26 3762.8L1929.98 3769.44C1929.61 3770.18 1928.55 3770.18 1928.18 3769.44L1924.9 3762.8C1924.76 3762.53 1924.51 3762.33 1924.21 3762.26L1915.78 3760.42C1914.73 3760.19 1914.73 3758.7 1915.78 3758.47L1924.21 3756.62C1924.51 3756.56 1924.76 3756.36 1924.9 3756.09L1928.18 3749.45Z" fill="#D52020"/>
<path d="M1958.94 2890.68C1958.91 2889.91 1960 2889.65 1960.71 2890.26L1961.91 2891.28C1962.17 2891.49 1962.51 2891.62 1962.84 2891.61L1963.58 2891.6C1964.69 2891.58 1965.38 2892.85 1964.5 2893.31L1963.92 2893.61C1963.67 2893.74 1963.52 2893.99 1963.53 2894.26L1963.59 2895.56C1963.62 2896.33 1962.53 2896.59 1961.81 2895.98L1960.61 2894.96C1960.36 2894.74 1960.01 2894.62 1959.69 2894.63L1958.95 2894.64C1957.84 2894.66 1957.15 2893.38 1958.02 2892.93L1958.6 2892.63C1958.86 2892.49 1959.01 2892.25 1958.99 2891.98L1958.94 2890.68Z" fill="#D52020"/>
<path d="M1046.51 1309.64C1046.87 1308.89 1047.93 1308.89 1048.3 1309.64L1049.72 1312.5C1049.85 1312.78 1050.1 1312.97 1050.4 1313.04L1053.15 1313.64C1054.2 1313.87 1054.2 1315.36 1053.15 1315.59L1050.4 1316.19C1050.1 1316.26 1049.85 1316.45 1049.72 1316.73L1048.3 1319.59C1047.93 1320.34 1046.87 1320.34 1046.51 1319.59L1045.09 1316.73C1044.95 1316.45 1044.7 1316.26 1044.4 1316.19L1041.66 1315.59C1040.61 1315.36 1040.61 1313.87 1041.66 1313.64L1044.4 1313.04C1044.7 1312.97 1044.95 1312.78 1045.09 1312.5L1046.51 1309.64Z" fill="#D52020"/>
<defs>
<filter id="filter0_f_1_9" x="624.503" y="0.0704689" width="2037.06" height="1878.12" filterUnits="userSpaceOnUse" color-interpolation-filters="sRGB">
<feFlood flood-opacity="0" result="BackgroundImageFix"/>
<feBlend mode="normal" in="SourceGraphic" in2="BackgroundImageFix" result="shape"/>
<feGaussianBlur stdDeviation="400" result="effect1_foregroundBlur_1_9"/>
</filter>
<filter id="filter1_f_1_9" x="1002.94" y="1077.52" width="2037.06" height="1878.12" filterUnits="userSpaceOnUse" color-interpolation-filters="sRGB">
<feFlood flood-opacity="0" result="BackgroundImageFix"/>
<feBlend mode="normal" in="SourceGraphic" in2="BackgroundImageFix" result="shape"/>
<feGaussianBlur stdDeviation="400" result="effect1_foregroundBlur_1_9"/>
</filter>
<filter id="filter2_f_1_9" x="0" y="2179.28" width="2037.06" height="1878.12" filterUnits="userSpaceOnUse" color-interpolation-filters="sRGB">
<feFlood flood-opacity="0" result="BackgroundImageFix"/>
<feBlend mode="normal" in="SourceGraphic" in2="BackgroundImageFix" result="shape"/>
<feGaussianBlur stdDeviation="400" result="effect1_foregroundBlur_1_9"/>
</filter>
<filter id="filter3_f_1_9" x="42.6403" y="2199.06" width="2037.06" height="1878.12" filterUnits="userSpaceOnUse" color-interpolation-filters="sRGB">
<feFlood flood-opacity="0" result="BackgroundImageFix"/>
<feBlend mode="normal" in="SourceGraphic" in2="BackgroundImageFix" result="shape"/>
<feGaussianBlur stdDeviation="400" result="effect1_foregroundBlur_1_9"/>
</filter>
<filter id="filter4_f_1_9" x="1061.57" y="2802.8" width="1942.9" height="1818.2" filterUnits="userSpaceOnUse" color-interpolation-filters="sRGB">
<feFlood flood-opacity="0" result="BackgroundImageFix"/>
<feBlend mode="normal" in="SourceGraphic" in2="BackgroundImageFix" result="shape"/>
<feGaussianBlur stdDeviation="400" result="effect1_foregroundBlur_1_9"/>
</filter>
</defs>
</svg>
