<svg width="34" height="34" viewBox="0 0 34 34" fill="none" xmlns="http://www.w3.org/2000/svg">
<path d="M26.9166 15.5833C26.9166 18.2134 25.8719 20.7357 24.0121 22.5955C22.1524 24.4552 19.63 25.5 17 25.5M17 25.5C14.3699 25.5 11.8476 24.4552 9.98784 22.5955C8.1281 20.7357 7.08331 18.2134 7.08331 15.5833M17 25.5V31.1666M17 31.1666H11.3333M17 31.1666H22.6666M17 19.8333C15.8728 19.8333 14.7918 19.3855 13.9948 18.5885C13.1977 17.7915 12.75 16.7105 12.75 15.5833V7.08331C12.75 5.95614 13.1977 4.87514 13.9948 4.07811C14.7918 3.28108 15.8728 2.83331 17 2.83331C18.1272 2.83331 19.2082 3.28108 20.0052 4.07811C20.8022 4.87514 21.25 5.95614 21.25 7.08331V15.5833C21.25 16.7105 20.8022 17.7915 20.0052 18.5885C19.2082 19.3855 18.1272 19.8333 17 19.8333Z" stroke="white" stroke-width="2" stroke-linecap="round" stroke-linejoin="round"/>
</svg>
