<svg width="32" height="32" viewBox="0 0 32 32" fill="none" xmlns="http://www.w3.org/2000/svg">
<path d="M5.33331 21.3333L11.448 15.2186C11.9481 14.7187 12.6262 14.4379 13.3333 14.4379C14.0404 14.4379 14.7186 14.7187 15.2186 15.2186L21.3333 21.3333M18.6666 18.6666L20.7813 16.552C21.2814 16.0521 21.9595 15.7712 22.6666 15.7712C23.3738 15.7712 24.0519 16.0521 24.552 16.552L26.6666 18.6666M18.6666 10.6666H18.68M7.99998 26.6666H24C24.7072 26.6666 25.3855 26.3857 25.8856 25.8856C26.3857 25.3855 26.6666 24.7072 26.6666 24V7.99998C26.6666 7.29274 26.3857 6.61446 25.8856 6.11436C25.3855 5.61426 24.7072 5.33331 24 5.33331H7.99998C7.29274 5.33331 6.61446 5.61426 6.11436 6.11436C5.61426 6.61446 5.33331 7.29274 5.33331 7.99998V24C5.33331 24.7072 5.61426 25.3855 6.11436 25.8856C6.61446 26.3857 7.29274 26.6666 7.99998 26.6666Z" stroke="white" stroke-width="2" stroke-linecap="round" stroke-linejoin="round"/>
</svg>
